<?xml version="1.0" encoding="UTF-8"?>
<svg version="1.1" xmlns="http://www.w3.org/2000/svg" width="500" height="500">
<path d="M0 0 C165 0 330 0 500 0 C500 165 500 330 500 500 C335 500 170 500 0 500 C0 335 0 170 0 0 Z " fill="#FEFEFE" transform="translate(0,0)"/>
<path d="M0 0 C1.18070068 0.00737183 1.18070068 0.00737183 2.38525391 0.01489258 C9.00550473 0.14686446 14.9748004 1.13592727 21.25 3.3125 C22.24386719 3.6528125 23.23773438 3.993125 24.26171875 4.34375 C45.62291526 12.43967083 58.43549704 30.24983118 67.83325195 50.19726562 C71.76867611 58.96615138 74.3059117 67.92026811 76.25 77.3125 C76.43328857 78.08537354 76.61657715 78.85824707 76.80541992 79.65454102 C78.58803794 87.90142412 78.58787885 96.10116989 78.56567383 104.4987793 C78.56252772 106.97815556 78.58599725 109.45631839 78.61132812 111.93554688 C78.69801635 134.2300931 73.8911214 157.08151702 59.50390625 174.76171875 C57.84741545 176.81040052 56.53960262 179.01987312 55.25 181.3125 C55.84748047 182.03953125 55.84748047 182.03953125 56.45703125 182.78125 C61.34436692 188.96474039 64.97899484 194.94288025 64.59375 203.11328125 C63.27242407 211.56676421 59.78336965 218.72752272 53.25 224.3125 C45.57239624 229.16745532 38.25867805 230.19590514 29.25 229.3125 C20.37343295 226.69238228 15.12430907 220.85576272 10.3125 213.25 C7.90749805 206.67027767 7.96919621 198.08639101 10.19921875 191.515625 C14.55576172 183.32477449 21.45502381 177.33536589 30.25 174.3125 C37.70951762 173.43019146 44.25649818 174.76389196 51.25 177.3125 C71.83848953 155.50575665 75.06762967 126.14970122 74.38623047 97.44628906 C73.29714811 72.39349137 64.50775827 48.15029584 49.25 28.3125 C48.63769531 27.49265625 48.02539062 26.6728125 47.39453125 25.828125 C37.75685935 13.90946892 23.30824359 6.97333569 8.25 5.3125 C-5.50215042 4.50844282 -19.85540097 5.67882114 -30.7890625 15.0625 C-38.2118574 22.89591759 -40.41002283 31.22331651 -40.28662109 41.85449219 C-39.38879824 61.92503452 -23.34951319 78.73382755 -11.7109375 93.984375 C1.13874903 111.46933658 7.61881238 130.96107052 7.5625 152.5625 C7.58666992 154.39361328 7.58666992 154.39361328 7.61132812 156.26171875 C7.62561064 183.25567652 -4.11865668 207.27695127 -22.75 226.3125 C-40.88574313 243.52706253 -65.204381 252.68904226 -89.9375 252.625 C-91.16275391 252.64111328 -92.38800781 252.65722656 -93.65039062 252.67382812 C-119.13088674 252.68726012 -140.9690991 242.56455526 -159.55078125 225.67578125 C-160.75 224.3125 -160.75 224.3125 -160.75 222.3125 C-156.69601372 222.9225659 -153.79621412 225.17164287 -150.5 227.4375 C-128.85868035 241.7827018 -102.1831825 247.21829345 -76.55859375 242.0859375 C-71.89652938 240.80208667 -67.3899878 239.16309828 -62.87890625 237.43359375 C-60.15279538 236.45682244 -57.5995391 235.78653548 -54.75 235.3125 C-54.75 232.0125 -54.75 228.7125 -54.75 225.3125 C-75.54 225.3125 -96.33 225.3125 -117.75 225.3125 C-117.75 210.7925 -117.75 196.2725 -117.75 181.3125 C-96.96 181.3125 -76.17 181.3125 -54.75 181.3125 C-54.75 161.1825 -54.75 141.0525 -54.75 120.3125 C-40.23 120.3125 -25.71 120.3125 -10.75 120.3125 C-10.75 140.1125 -10.75 159.9125 -10.75 180.3125 C-9.1 180.3125 -7.45 180.3125 -5.75 180.3125 C-5.46125 179.03375 -5.1725 177.755 -4.875 176.4375 C-4.63136719 175.35855469 -4.63136719 175.35855469 -4.3828125 174.2578125 C-4.17398438 173.28585938 -3.96515625 172.31390625 -3.75 171.3125 C-3.58242188 170.60746338 -3.41484375 169.90242676 -3.2421875 169.17602539 C-1.76420101 162.56665454 -1.43743232 156.25946727 -1.5 149.5 C-1.51015137 147.91396973 -1.51015137 147.91396973 -1.52050781 146.29589844 C-1.84410853 121.83017886 -10.52303342 102.4236942 -25.4921875 83.484375 C-34.13906571 72.52182311 -43.98999108 59.75266942 -44.75 45.3125 C-44.811875 44.34699219 -44.87375 43.38148437 -44.9375 42.38671875 C-45.36758407 30.9491704 -42.50798574 21.82004958 -34.75 13.3125 C-25.74689996 3.76649945 -12.83821048 -0.09584901 0 0 Z " fill="#0A6498" transform="translate(290.75,50.6875)"/>
<path d="M0 0 C0.33 0 0.66 0 1 0 C1 19.47 1 38.94 1 59 C-12.53 59 -26.06 59 -40 59 C-40 48.11 -40 37.22 -40 26 C-36.04 24.35 -32.08 22.7 -28 21 C-17.31598654 15.60953969 -8.32139131 8.53476032 0 0 Z " fill="#0B6E84" transform="translate(277,276)"/>
<path d="M0 0 C4.89677874 2.50889323 8.47339899 4.8606739 10.62109375 10.08984375 C11.3399242 16.0220866 11.5190248 21.19421154 8.93359375 26.65234375 C4.50939932 31.31568383 0.98926173 34.18188766 -5.56640625 34.40234375 C-10.55735185 34.32918657 -14.35857087 33.06416427 -18.37890625 30.08984375 C-23.18972408 24.04548289 -24.22703147 18.64051409 -23.37890625 11.08984375 C-18.87511213 2.0822555 -9.97316258 -3.81567632 0 0 Z " fill="#0E6F85" transform="translate(333.37890625,235.91015625)"/>
<path d="M0 0 C4.09736249 2.44265841 7.09503894 4.60473377 9.25 8.9375 C10.22071014 14.39867076 10.17969183 19.88781874 7.6875 24.9375 C3.88223047 29.62090865 1.02741457 31.60157829 -4.8828125 32.31640625 C-9.94652318 32.4951933 -13.69389113 32.4377621 -18.3125 30.25 C-23.25330899 25.56256583 -25.86127488 22.01960802 -26.0625 15.125 C-25.98432753 10.23566712 -25.16838845 7.61226759 -21.75 3.9375 C-14.97848698 -1.94466684 -8.4540921 -2.39532609 0 0 Z " fill="#0C6598" transform="translate(301.75,362.0625)"/>
<path d="M0 0 C6 0 6 0 7.55151367 1.42114258 C7.91994385 2.07236084 8.28837402 2.7235791 8.66796875 3.39453125 C9.08626953 4.10287109 9.50457031 4.81121094 9.93554688 5.54101562 C10.34869141 6.29060547 10.76183594 7.04019531 11.1875 7.8125 C12.03172458 9.27932419 12.87927127 10.74424242 13.73046875 12.20703125 C14.09551514 12.8616333 14.46056152 13.51623535 14.83666992 14.19067383 C16.04198378 16.06529733 17.37208904 17.48621546 19 19 C19.29656494 18.42443359 19.59312988 17.84886719 19.89868164 17.25585938 C21.25889796 14.65494255 22.65971608 12.07818849 24.0625 9.5 C24.52849609 8.59378906 24.99449219 7.68757813 25.47460938 6.75390625 C25.94833984 5.89667969 26.42207031 5.03945313 26.91015625 4.15625 C27.33433838 3.36025391 27.75852051 2.56425781 28.19555664 1.74414062 C30 0 30 0 37 0 C37 10.89 37 21.78 37 33 C34.69 33 32.38 33 30 33 C29.67 27.06 29.34 21.12 29 15 C26.20174265 19.92727171 26.20174265 19.92727171 23.43652344 24.87304688 C23.08106445 25.48212891 22.72560547 26.09121094 22.359375 26.71875 C22.00327148 27.34716797 21.64716797 27.97558594 21.28027344 28.62304688 C20.8577832 29.07744141 20.43529297 29.53183594 20 30 C18.68 30 17.36 30 16 30 C12.04 23.07 12.04 23.07 8 16 C7.67 21.61 7.34 27.22 7 33 C4.69 33 2.38 33 0 33 C0 22.11 0 11.22 0 0 Z " fill="#0E6699" transform="translate(120,361)"/>
<path d="M0 0 C2.31 0 4.62 0 7 0 C7 11.22 7 22.44 7 34 C4.69 34 2.38 34 0 34 C0 33.34 0 32.68 0 32 C-0.99 32.66 -1.98 33.32 -3 34 C-7.07463524 34.66624845 -11.24356703 34.94496094 -14.953125 32.94921875 C-17.97516063 30.46264089 -19.82580262 28.52298281 -20.2734375 24.609375 C-20.58136511 15.94002851 -20.58136511 15.94002851 -17.625 12.375 C-14.16529477 9.24479051 -12.61632834 8.84593486 -8.0625 8.8125 C-7.18722656 8.79832031 -6.31195313 8.78414063 -5.41015625 8.76953125 C-3 9 -3 9 0 11 C0 7.37 0 3.74 0 0 Z " fill="#0B6498" transform="translate(212,360)"/>
<path d="M0 0 C5.26713056 4.12161389 8.43765712 8.69139993 9.49609375 15.3515625 C9.87785875 22.47449366 8.06676387 27.86230123 4.08203125 33.74609375 C-1.24165868 39.20988078 -6.92320593 40.93677414 -14.35546875 41.24609375 C-21.62583516 41.0543295 -25.52384719 39.01113238 -30.6640625 34.06640625 C-35.58513869 28.75589238 -37.49659861 23.41903518 -37.2890625 16.1796875 C-36.29291451 9.64705385 -33.14503673 4.32025391 -27.98046875 0.24609375 C-18.86761621 -5.78371896 -9.12305275 -5.96435832 0 0 Z M-28.35546875 8.43359375 C-31.52842477 13.12956866 -31.49616233 17.17589083 -30.91796875 22.74609375 C-29.52858547 27.41442158 -27.67388581 30.14444548 -23.85546875 33.18359375 C-18.77325407 35.88689943 -14.5690095 36.26951776 -8.91796875 35.74609375 C-3.24320762 33.78175336 0.39603456 30.11808713 3.08203125 24.74609375 C3.56580854 19.00421243 3.85358851 13.62466794 1.64453125 8.24609375 C-2.73420515 3.9741558 -7.72279812 0.56542539 -13.98046875 0.12109375 C-20.17335834 1.1040921 -24.17818676 3.82787258 -28.35546875 8.43359375 Z " fill="#F2F7F9" transform="translate(340.91796875,234.25390625)"/>
<path d="M0 0 C7 0 7 0 9.1875 1.87109375 C10.0846875 3.14146484 10.0846875 3.14146484 11 4.4375 C11.66 5.34113281 12.32 6.24476563 13 7.17578125 C13.66 8.10777344 14.32 9.03976562 15 10 C16.32540505 11.71449176 17.65815423 13.42334478 19 15.125 C20.485 17.043125 20.485 17.043125 22 19 C22.33 13.06 22.66 7.12 23 1 C25.31 1 27.62 1 30 1 C30 11.56 30 22.12 30 33 C23 33 23 33 20.77734375 31.05859375 C19.86662109 29.76115234 19.86662109 29.76115234 18.9375 28.4375 C18.27621094 27.53128906 17.61492187 26.62507813 16.93359375 25.69140625 C16.29550781 24.80324219 15.65742188 23.91507812 15 23 C13.85015162 21.61090504 12.68567449 20.23364348 11.5 18.875 C10.2625 17.451875 10.2625 17.451875 9 16 C8.67 21.61 8.34 27.22 8 33 C5.36 33 2.72 33 0 33 C0 22.11 0 11.22 0 0 Z " fill="#0C6598" transform="translate(240,361)"/>
<path d="M0 0 C2.64 0 5.28 0 8 0 C9.67905008 3.57152574 11.35112814 7.14622658 13.01708984 10.72387695 C13.86067013 12.53178905 14.70958714 14.33720791 15.55859375 16.14257812 C16.09355469 17.29306641 16.62851562 18.44355469 17.1796875 19.62890625 C17.67194824 20.68150635 18.16420898 21.73410645 18.67138672 22.81860352 C20.07958971 26.19057947 21.06317432 29.47232655 22 33 C19.36 33 16.72 33 14 33 C13.34 30.69 12.68 28.38 12 26 C6.72 26 1.44 26 -4 26 C-4.66 28.31 -5.32 30.62 -6 33 C-8.64 33 -11.28 33 -14 33 C-12.63568604 28.70326019 -11.02112055 24.6216523 -9.1796875 20.5078125 C-8.64472656 19.30898438 -8.10976563 18.11015625 -7.55859375 16.875 C-6.99745717 15.62497246 -6.43625849 14.3749728 -5.875 13.125 C-5.30573112 11.85167802 -4.73671824 10.57824156 -4.16796875 9.3046875 C-2.78115731 6.20199072 -1.39175486 3.10048172 0 0 Z " fill="#0D6699" transform="translate(362,361)"/>
<path d="M0 0 C3.68157213 1.56662644 6.16042622 3.4176721 8 7 C8 9.64 8 12.28 8 15 C2.06 15 -3.88 15 -10 15 C-9.01 16.485 -9.01 16.485 -8 18 C-5.89470736 18.3642359 -5.89470736 18.3642359 -3.5625 18.1875 C-2.78003906 18.16042969 -1.99757812 18.13335937 -1.19140625 18.10546875 C-0.46824219 18.07066406 0.25492188 18.03585937 1 18 C1.99 18 2.98 18 4 18 C4.66 19.32 5.32 20.64 6 22 C1.86401531 25.70165694 -1.63869074 25.60767697 -7.0078125 25.49609375 C-11.55292065 24.74253143 -14.16817571 22.53748925 -17 19 C-18.75845645 15.48308711 -18.68065337 11.82789463 -18 8 C-13.41028428 0.3598886 -8.5445017 -0.75471939 0 0 Z " fill="#12699B" transform="translate(180,369)"/>
<path d="M0 0 C2.64 0 5.28 0 8 0 C11.73714094 7.18803279 14.94607624 14.49607305 18 22 C21.3 14.74 24.6 7.48 28 0 C30.64 0 33.28 0 36 0 C34.46003913 3.90102121 32.83387061 7.75938655 31.1796875 11.61328125 C30.91616486 12.22769577 30.65264221 12.84211029 30.38113403 13.47514343 C29.54632655 15.42117435 28.71067675 17.36684223 27.875 19.3125 C27.30593372 20.63864791 26.73692274 21.96481954 26.16796875 23.29101562 C24.77928533 26.52761848 23.38984668 29.76389647 22 33 C19.36 33 16.72 33 14 33 C12.16265105 28.94510838 10.32969151 24.88827019 8.50073242 20.82958984 C7.87823125 19.44981752 7.25454439 18.07057949 6.62963867 16.69189453 C5.73041795 14.70745675 4.83551137 12.72112194 3.94140625 10.734375 C3.40201416 9.54038086 2.86262207 8.34638672 2.30688477 7.11621094 C1.29750009 4.70937626 0.50966835 2.5455868 0 0 Z " fill="#0E6799" transform="translate(313,361)"/>
<path d="M0 0 C3.63 0 7.26 0 11 0 C11 12.54 11 25.08 11 38 C7.638125 38.061875 4.27625 38.12375 0.8125 38.1875 C-0.76374146 38.22846802 -0.76374146 38.22846802 -2.37182617 38.27026367 C-8.45774312 38.32453448 -12.07945061 37.83401459 -16.58203125 33.46484375 C-20 29.22222222 -20 29.22222222 -20 27 C-21.65 27 -23.3 27 -25 27 C-23.02 29.97 -23.02 29.97 -21 33 C-26.2110424 37.3660085 -29.74503299 38.35927334 -36.42578125 38.28125 C-40.54674561 37.83100807 -42.68650676 36.50202551 -46 34 C-48.75923267 30.25209614 -49.41009221 27.56382283 -49.375 22.9375 C-49.38273438 21.91527344 -49.39046875 20.89304687 -49.3984375 19.83984375 C-48.95188225 16.65704312 -48.28641284 15.23810835 -46 13 C-45.01 13 -44.02 13 -43 13 C-42.67 12.01 -42.34 11.02 -42 10 C-37.82572007 7.91286004 -32.26355982 8.26643895 -27.890625 9.68359375 C-23.5622114 11.91254178 -21.72413603 14.53753027 -20 19 C-19.443125 17.63875 -19.443125 17.63875 -18.875 16.25 C-16.63357053 12.36485558 -15.03784029 10.94414532 -11 9 C-7.19870798 8.54563681 -3.47673705 8.26163148 0 10 C0 6.7 0 3.4 0 0 Z M2 2 C2 5.63 2 9.26 2 13 C1.01 12.34 0.02 11.68 -1 11 C-5.07463524 10.33375155 -9.24356703 10.05503906 -12.953125 12.05078125 C-15.97516063 14.53735911 -17.82580262 16.47701719 -18.2734375 20.390625 C-18.6013666 26.98147007 -18.6013666 26.98147007 -15.625 32.625 C-12.16529477 35.75520949 -10.61632834 36.15406514 -6.0625 36.1875 C-5.18722656 36.20167969 -4.31195313 36.21585937 -3.41015625 36.23046875 C-0.73755665 36.16663349 -0.73755665 36.16663349 2 34 C2 34.66 2 35.32 2 36 C4.31 36 6.62 36 9 36 C9 24.78 9 13.56 9 2 C6.69 2 4.38 2 2 2 Z M-47 17 C-48.75845645 20.51691289 -48.68065337 24.17210537 -48 28 C-45.96994709 31.3792573 -43.55205232 34.22397384 -40 36 C-38.04550156 36.1481544 -36.0848947 36.22124849 -34.125 36.25 C-32.55105469 36.28867187 -32.55105469 36.28867187 -30.9453125 36.328125 C-27.69443414 35.96595818 -26.37649233 35.18132146 -24 33 C-24.66 31.68 -25.32 30.36 -26 29 C-27.73082583 29 -29.46258153 29.02226328 -31.19140625 29.10546875 C-31.97386719 29.13253906 -32.75632813 29.15960938 -33.5625 29.1875 C-34.74005859 29.23970703 -34.74005859 29.23970703 -35.94140625 29.29296875 C-36.96041016 29.14794922 -36.96041016 29.14794922 -38 29 C-38.66 28.01 -39.32 27.02 -40 26 C-34.06 26 -28.12 26 -22 26 C-21.39972711 19.15128505 -21.39972711 19.15128505 -24.3125 14.5625 C-28.36648083 10.69707641 -32.03226769 10.55056267 -37.41796875 10.57421875 C-41.68750023 11.2782716 -44.26501449 13.77154615 -47 17 Z " fill="#CEEBED" transform="translate(210,358)"/>
<path d="M0 0 C2 2 2 2 2.125 4.9375 C2.08375 5.948125 2.0425 6.95875 2 8 C2 8.99 2 9.98 2 11 C2 20.66666667 2 30.33333333 2 40 C-1.63 40 -5.26 40 -9 40 C-9 29.66666667 -9 19.33333333 -9 9 C-9.33 8.67 -9.66 8.34 -10 8 C-10.28792759 5.26468791 -10.34443368 3.58756334 -8.9375 1.1875 C-5.94449731 -0.646921 -3.42183337 -0.31107576 0 0 Z " fill="#CAE8EB" transform="translate(233,356)"/>
<path d="M0 0 C9 0 9 0 11.0078125 1.64453125 C11.37648437 2.35996094 11.74515625 3.07539063 12.125 3.8125 C12.51945313 4.52019531 12.91390625 5.22789062 13.3203125 5.95703125 C14 8 14 8 13 11 C12.70867187 10.43410156 12.41734375 9.86820312 12.1171875 9.28515625 C11.70726562 8.55167969 11.29734375 7.81820313 10.875 7.0625 C10.28332031 5.96615234 10.28332031 5.96615234 9.6796875 4.84765625 C7.72855855 2.31827171 7.72855855 2.31827171 2 2 C2 12.89 2 23.78 2 35 C4.31 35 6.62 35 9 35 C9 29.06 9 23.12 9 17 C11.6584565 19.6584565 13.28511996 21.87307766 15.1875 25.0625 C15.71730469 25.94035156 16.24710938 26.81820313 16.79296875 27.72265625 C18 30 18 30 18 32 C19.88103938 32.03431307 19.88103938 32.03431307 22 31 C23.54099553 28.67396901 24.84988799 26.46295399 26.125 24 C29.77108434 17.11445783 29.77108434 17.11445783 32 16 C32 22.27 32 28.54 32 35 C34.31 35 36.62 35 39 35 C39 24.11 39 13.22 39 2 C36.69 2 34.38 2 32 2 C31.76539063 2.66386719 31.53078125 3.32773437 31.2890625 4.01171875 C29.64186027 7.83023301 27.54382187 11.27122053 25.375 14.8125 C24.95476562 15.50537109 24.53453125 16.19824219 24.1015625 16.91210938 C23.0710533 18.61010748 22.03598319 20.30533614 21 22 C17.74495597 18.90636311 15.8656019 16.10432418 14 12 C17.47899158 13.39159663 18.48052501 14.63251488 20 18 C20.42913696 17.2275293 20.42913696 17.2275293 20.86694336 16.43945312 C22.18971369 14.1049972 23.56215503 11.80384018 24.9375 9.5 C25.38673828 8.68917969 25.83597656 7.87835938 26.29882812 7.04296875 C26.76611328 6.27597656 27.23339844 5.50898438 27.71484375 4.71875 C28.33540649 3.65043945 28.33540649 3.65043945 28.96850586 2.56054688 C31 1 31 1 40 1 C40 12.88 40 24.76 40 37 C36.7 37 33.4 37 30 37 C29.505 30.565 29.505 30.565 29 24 C27.700625 26.2275 27.700625 26.2275 26.375 28.5 C23.4490219 32.84421689 23.4490219 32.84421689 19.9375 34.0625 C15.32836526 32.39536616 14.26239153 29.25861935 12 25 C11.67 28.96 11.34 32.92 11 37 C7.37 37 3.74 37 0 37 C0 24.79 0 12.58 0 0 Z " fill="#D6F1F0" transform="translate(118,359)"/>
<path d="M0 0 C4.99503071 0.4913145 6.31841769 1.88091769 9.8125 5.375 C11.34464888 8.43929776 11.04188548 10.9915642 10.8125 14.375 C9.55794028 17.19775936 8.52865278 18.83788541 6.0625 20.6875 C2.7914382 21.68699111 0.21507412 21.7331657 -3.1875 21.375 C-5.94079021 19.57937595 -7.71377461 18.32245078 -9.1875 15.375 C-9.60818924 12.31598826 -9.67778455 9.42741674 -9.1875 6.375 C-6.75 3.375 -6.75 3.375 -4.1875 1.375 C-3.1875 0.375 -3.1875 0.375 0 0 Z " fill="#FCFEFE" transform="translate(293.1875,366.625)"/>
<path d="M0 0 C0.99 0.33 1.98 0.66 3 1 C2.6390625 1.70382813 2.278125 2.40765625 1.90625 3.1328125 C-2.24998156 11.97634965 -3.82625181 20.34215967 -1.1953125 29.93359375 C0.47844033 34.29962342 2.57862472 37.96437453 5 42 C-3.58 42 -12.16 42 -21 42 C-19.96875 40.39125 -18.9375 38.7825 -17.875 37.125 C-16.58215588 35.08407873 -15.29049092 33.04241003 -14 31 C-13.46375 30.16339844 -12.9275 29.32679688 -12.375 28.46484375 C-6.80825025 19.5493461 -3.16332374 9.98944337 0 0 Z " fill="#19768B" transform="translate(300,233)"/>
<path d="M0 0 C3.63 0 7.26 0 11 0 C11 12.21 11 24.42 11 37 C2 37 2 37 -0.10742188 35.74658203 C-0.55666016 35.17278809 -1.00589844 34.59899414 -1.46875 34.0078125 C-1.97664063 33.38519531 -2.48453125 32.76257813 -3.0078125 32.12109375 C-3.50023437 31.46238281 -3.99265625 30.80367188 -4.5 30.125 C-5.02335937 29.47402344 -5.54671875 28.82304687 -6.0859375 28.15234375 C-9.68472343 23.63055314 -9.68472343 23.63055314 -11 21 C-11.33 25.95 -11.66 30.9 -12 36 C-15.3 36 -18.6 36 -22 36 C-22 24.45 -22 12.9 -22 1 C-13 1 -13 1 -9.75 3.7734375 C-8.80545286 4.95214813 -7.88887687 6.15376048 -7 7.375 C-6.28650391 8.27992188 -6.28650391 8.27992188 -5.55859375 9.203125 C-3.85324876 11.38946473 -2.2428514 13.51429721 -1 16 C-0.67 10.72 -0.34 5.44 0 0 Z M-21 2 C-21 12.89 -21 23.78 -21 35 C-18.36 35 -15.72 35 -13 35 C-12.67 29.39 -12.34 23.78 -12 18 C-3.02678571 27.77678571 -3.02678571 27.77678571 -0.375 32.125 C0.40875 33.07375 1.1925 34.0225 2 35 C4.31 35 6.62 35 9 35 C9 24.44 9 13.88 9 3 C6.69 3 4.38 3 2 3 C1.67 8.94 1.34 14.88 1 21 C-0.36125 19.35 -1.7225 17.7 -3.125 16 C-3.95 15.00355469 -4.775 14.00710938 -5.625 12.98046875 C-8.08089674 9.89847992 -10.26134947 6.7208713 -12.3203125 3.36328125 C-14.54530211 1.26478456 -14.54530211 1.26478456 -21 2 Z " fill="#C9E8EA" transform="translate(261,359)"/>
<path d="M0 0 C3.3 0 6.6 0 10 0 C11.27236834 2.68678256 12.54293165 5.37439468 13.8125 8.0625 C14.16892578 8.81466797 14.52535156 9.56683594 14.89257812 10.34179688 C17.02395627 14.85875422 19.05072124 19.40170139 21 24 C22.03689571 26.29904808 23.08212799 28.59394595 24.1328125 30.88671875 C25 33 25 33 26 37 C22.04 37 18.08 37 14 37 C13.01 33.535 13.01 33.535 12 30 C7.38 30 2.76 30 -2 30 C-2.495 32.475 -2.495 32.475 -3 35 C-3.33 35.66 -3.66 36.32 -4 37 C-7.96 37 -11.92 37 -16 37 C-14.55463876 32.39097252 -12.74815727 28.01962118 -10.7421875 23.6328125 C-10.2803154 22.61343094 -10.2803154 22.61343094 -9.80911255 21.57345581 C-8.83385762 19.42269444 -7.85450059 17.27383062 -6.875 15.125 C-6.20936254 13.65897803 -5.54399521 12.19283339 -4.87890625 10.7265625 C-3.25572468 7.14961531 -1.6288638 3.57436299 0 0 Z M1 2 C-0.99859149 6.37609528 -2.99229072 10.75437271 -4.98144531 15.13476562 C-5.65913291 16.62528849 -6.33816455 18.11520102 -7.01855469 19.60449219 C-7.9950611 21.74255726 -8.96674766 23.88275492 -9.9375 26.0234375 C-10.24373291 26.69120209 -10.54996582 27.35896667 -10.86547852 28.04696655 C-12.46850282 31.38932799 -12.46850282 31.38932799 -13 35 C-10.36 35 -7.72 35 -5 35 C-4.01 31.535 -4.01 31.535 -3 28 C2.28 28 7.56 28 13 28 C13.66 30.31 14.32 32.62 15 35 C17.64 35 20.28 35 23 35 C20.69182884 27.50829089 17.62777717 20.53433204 14.3125 13.4375 C13.80138672 12.33341797 13.29027344 11.22933594 12.76367188 10.09179688 C11.5133598 7.39252502 10.25872684 4.69535545 9 2 C6.36 2 3.72 2 1 2 Z " fill="#D0ECED" transform="translate(361,359)"/>
<path d="M0 0 C3.63 0 7.26 0 11 0 C10.12802787 4.35986067 8.86938859 7.96601107 7.09375 11.98046875 C6.80898804 12.63453201 6.52422607 13.28859528 6.23083496 13.96247864 C5.32516078 16.03953299 4.41263006 18.11349402 3.5 20.1875 C2.88627823 21.59290667 2.27299238 22.99850379 1.66015625 24.40429688 C-2.73791907 34.47583814 -2.73791907 34.47583814 -4 37 C-5.64574566 37.02688151 -7.29161413 37.04634123 -8.9375 37.0625 C-9.85402344 37.07410156 -10.77054687 37.08570313 -11.71484375 37.09765625 C-14 37 -14 37 -15 36 C-15.04063832 34.33382885 -15.042721 32.66611905 -15 31 C-14.34 32.32 -13.68 33.64 -13 35 C-10.36 35 -7.72 35 -5 35 C-4.83636963 34.47647949 -4.67273926 33.95295898 -4.50415039 33.41357422 C-2.49089563 27.15847028 -0.04690212 21.15259119 2.5625 15.125 C3.16094727 13.72121094 3.16094727 13.72121094 3.77148438 12.2890625 C5.34093079 8.64186815 6.79131387 5.31302919 9 2 C6.36 2 3.72 2 1 2 C0.62875 3.19625 0.2575 4.3925 -0.125 5.625 C-2.32154521 12.25708093 -5.19134431 18.61008106 -8 25 C-10.9777759 22.50003341 -11.94548483 19.95288929 -13.1875 16.3125 C-13.53167969 15.31863281 -13.87585938 14.32476562 -14.23046875 13.30078125 C-14.48441406 12.54152344 -14.73835938 11.78226562 -15 11 C-12 12 -12 12 -10.8125 14.3125 C-10 17 -10 17 -10 21 C-9.34 21 -8.68 21 -8 21 C-7.88527344 20.30003906 -7.77054687 19.60007812 -7.65234375 18.87890625 C-6.93347608 15.70641839 -5.83698327 12.92894293 -4.5625 9.9375 C-4.13066406 8.91527344 -3.69882812 7.89304687 -3.25390625 6.83984375 C-2.23409303 4.53017332 -1.12912324 2.25824649 0 0 Z " fill="#C7E6EA" transform="translate(340,359)"/>
<path d="M0 0 C2.31 0 4.62 0 7 0 C7 8.25 7 16.5 7 25 C4.69 25 2.38 25 0 25 C0 16.75 0 8.5 0 0 Z " fill="#096397" transform="translate(226,369)"/>
<path d="M0 0 C9 0 9 0 11.0078125 1.64453125 C11.37648437 2.35996094 11.74515625 3.07539063 12.125 3.8125 C12.51945313 4.52019531 12.91390625 5.22789062 13.3203125 5.95703125 C14 8 14 8 13 11 C12.70867187 10.43410156 12.41734375 9.86820312 12.1171875 9.28515625 C11.70726562 8.55167969 11.29734375 7.81820313 10.875 7.0625 C10.28332031 5.96615234 10.28332031 5.96615234 9.6796875 4.84765625 C7.72855855 2.31827171 7.72855855 2.31827171 2 2 C2 12.89 2 23.78 2 35 C4.31 35 6.62 35 9 35 C9 30.71 9 26.42 9 22 C9.99 22.33 10.98 22.66 12 23 C11.67 27.62 11.34 32.24 11 37 C7.37 37 3.74 37 0 37 C0 24.79 0 12.58 0 0 Z " fill="#D2EDEE" transform="translate(118,359)"/>
<path d="M0 0 C2 1.5625 2 1.5625 3 4 C2.67272727 10.32727273 2.67272727 10.32727273 0 13 C-3.4375 13.375 -3.4375 13.375 -7 13 C-9.66266871 10.76679398 -9.95347082 9.3799883 -10.375 5.9375 C-10 3 -10 3 -8.9375 1.125 C-5.85928089 -0.66235303 -3.47093932 -0.43386742 0 0 Z " fill="#FAFDFD" transform="translate(209,375)"/>
<path d="M0 0 C3 1 3 1 4.15625 2.703125 C6.09344432 7.97659842 6.23390594 14.2775029 3.90234375 19.421875 C0.86033006 23.73747843 -2.83230645 27.49700834 -8 29 C-14.89590756 30.01699025 -20.40371338 29.93919108 -26.3125 26 C-27.56461132 25.02888314 -28.80347905 24.03883989 -30 23 C-29.505 21.515 -29.505 21.515 -29 20 C-27.50260417 21.26953125 -26.00520833 22.5390625 -24.5078125 23.80859375 C-19.88754159 27.45932594 -13.57877833 26.47210162 -8 26 C-3.99766867 24.81487651 -1.63453006 22.81874847 0.9375 19.5 C2.63526646 13.90735754 3.34293233 7.11807277 0.98046875 1.6328125 C0.49513672 0.82457031 0.49513672 0.82457031 0 0 Z " fill="#C8E6EA" transform="translate(308,367)"/>
<path d="M0 0 C4.99503071 0.4913145 6.31841769 1.88091769 9.8125 5.375 C11.34464888 8.43929776 11.04188548 10.9915642 10.8125 14.375 C9.55794028 17.19775936 8.52865278 18.83788541 6.0625 20.6875 C2.7914382 21.68699111 0.21507412 21.7331657 -3.1875 21.375 C-5.94079021 19.57937595 -7.71377461 18.32245078 -9.1875 15.375 C-9.60818924 12.31598826 -9.67778455 9.42741674 -9.1875 6.375 C-6.75 3.375 -6.75 3.375 -4.1875 1.375 C-3.1875 0.375 -3.1875 0.375 0 0 Z M-6.625 4.4375 C-8.59893691 8.14850139 -8.85444827 10.22509967 -8.1875 14.375 C-5.59533917 18.06686542 -4.14600936 19.20383761 0.3125 20 C3.9006668 19.591847 3.9006668 19.591847 6.8125 17.4375 C9.25762464 13.69340289 9.2901252 11.71229392 8.515625 7.40234375 C7.90740689 5.15777629 7.90740689 5.15777629 5.6875 3.3125 C0.88494657 1.74644997 -2.59689801 1.02910601 -6.625 4.4375 Z " fill="#C3E4E8" transform="translate(293.1875,366.625)"/>
<path d="M0 0 C0.33 0 0.66 0 1 0 C1 6.27 1 12.54 1 19 C0.67 19 0.34 19 0 19 C-0.33 15.04 -0.66 11.08 -1 7 C-2.03125 8.65 -3.0625 10.3 -4.125 12 C-5.8828125 14.8125 -5.8828125 14.8125 -8 17 C-11.0390625 17.62109375 -11.0390625 17.62109375 -14 17 C-15.828125 14.84765625 -15.828125 14.84765625 -17.25 12.0625 C-18.94494096 8.35537854 -18.94494096 8.35537854 -22 6 C-22 4.35 -22 2.7 -22 1 C-19.36115438 3.40111178 -17.63586471 6.00555028 -15.8125 9.0625 C-15.28269531 9.94035156 -14.75289062 10.81820313 -14.20703125 11.72265625 C-13 14 -13 14 -13 16 C-11.12173418 16.03384535 -11.12173418 16.03384535 -9 15 C-7.43261538 12.67364064 -6.10741956 10.46836448 -4.8125 8 C-1.03548387 1.03548387 -1.03548387 1.03548387 0 0 Z " fill="#CCEAEC" transform="translate(149,375)"/>
<path d="M0 0 C0 12.21 0 24.42 0 37 C-5.94 37 -11.88 37 -18 37 C-18 36.67 -18 36.34 -18 36 C-16.906875 35.855625 -15.81375 35.71125 -14.6875 35.5625 C-11.06877013 35.11711896 -11.06877013 35.11711896 -8 34 C-8 34.66 -8 35.32 -8 36 C-5.69 36 -3.38 36 -1 36 C-1 24.78 -1 13.56 -1 2 C-3.31 2 -5.62 2 -8 2 C-8 5.63 -8 9.26 -8 13 C-8.66 12.67 -9.32 12.34 -10 12 C-9.67 8.37 -9.34 4.74 -9 1 C-1.125 0 -1.125 0 0 0 Z " fill="#B7DCE3" transform="translate(220,358)"/>
<path d="M0 0 C0.66 0 1.32 0 2 0 C2.67119549 1.4562545 3.33681807 2.91507867 4 4.375 C4.556875 5.59316406 4.556875 5.59316406 5.125 6.8359375 C6 9 6 9 6 11 C2.7 11 -0.6 11 -4 11 C-2.68 7.37 -1.36 3.74 0 0 Z " fill="#D1EBED" transform="translate(365,370)"/>
<path d="M0 0 C2 1.5625 2 1.5625 3 4 C2.67272727 10.32727273 2.67272727 10.32727273 0 13 C-3.4375 13.375 -3.4375 13.375 -7 13 C-9.66266871 10.76679398 -9.95347082 9.3799883 -10.375 5.9375 C-10 3 -10 3 -8.9375 1.125 C-5.85928089 -0.66235303 -3.47093932 -0.43386742 0 0 Z M-8 3 C-8.41666667 6.5 -8.41666667 6.5 -8 10 C-5.30844799 12.264384 -5.30844799 12.264384 -2.9375 11.75 C-0.80523025 11.07467282 -0.80523025 11.07467282 1 9 C1.02375926 7.0068433 1.02375926 7.0068433 0.625 4.875 C0.41875 3.59625 0.2125 2.3175 0 1 C-4.49304582 0.57496554 -4.49304582 0.57496554 -8 3 Z " fill="#CAE9EB" transform="translate(209,375)"/>
<path d="M0 0 C3.29714793 0.32971479 4.6226839 0.6226839 7 3 C6.46428571 6.53571429 6.46428571 6.53571429 5 8 C2 8.125 2 8.125 -1 8 C-2 7 -2 7 -2.1875 4.5625 C-2 2 -2 2 0 0 Z " fill="#136A9B" transform="translate(227,357)"/>
<path d="M0 0 C0.66 0 1.32 0 2 0 C0.36047417 4.6393176 -2.06871052 8.63855858 -4.625 12.8125 C-5.04523438 13.50537109 -5.46546875 14.19824219 -5.8984375 14.91210938 C-6.9289467 16.61010748 -7.96401681 18.30533614 -9 20 C-12.25504403 16.90636311 -14.1343981 14.10432418 -16 10 C-12.52100842 11.39159663 -11.51947499 12.63251488 -10 16 C-9.70754395 15.5153125 -9.41508789 15.030625 -9.11376953 14.53125 C-7.79163524 12.34954486 -6.45851391 10.17476649 -5.125 8 C-4.66480469 7.236875 -4.20460937 6.47375 -3.73046875 5.6875 C-3.28574219 4.965625 -2.84101563 4.24375 -2.3828125 3.5 C-1.97434082 2.8296875 -1.56586914 2.159375 -1.14501953 1.46875 C-0.76716309 0.9840625 -0.38930664 0.499375 0 0 Z " fill="#C8E7EA" transform="translate(148,361)"/>
<path d="M0 0 C4.03309859 1.4839452 6.58583036 3.37874554 9 7 C9.1953125 9.26171875 9.1953125 9.26171875 9.125 11.6875 C9.10695312 12.49574219 9.08890625 13.30398438 9.0703125 14.13671875 C9.04710937 14.75160156 9.02390625 15.36648438 9 16 C8.67 16 8.34 16 8 16 C7.89042969 15.38511719 7.78085938 14.77023437 7.66796875 14.13671875 C7.50941406 13.32847656 7.35085937 12.52023437 7.1875 11.6875 C7.03667969 10.88699219 6.88585937 10.08648437 6.73046875 9.26171875 C5.90621167 6.70960726 5.09274359 5.64683212 3 4 C0.05173237 3.01724412 -1.92652504 2.86585275 -5 2.875 C-5.86625 2.87242187 -6.7325 2.86984375 -7.625 2.8671875 C-10.15011695 2.90405795 -10.15011695 2.90405795 -13 4 C-12.67 3.01 -12.34 2.02 -12 1 C-8.28466784 -0.85766608 -4.05428058 -0.44845555 0 0 Z " fill="#C2E3E7" transform="translate(180,367)"/>
<path d="M0 0 C3.43326642 1.34878324 5.94025301 2.96016867 9 5 C8.67 5.99 8.34 6.98 8 8 C7.2575 7.360625 6.515 6.72125 5.75 6.0625 C1.83855619 3.12891715 -1.18463821 2.86031902 -6 2.875 C-6.845625 2.87242187 -7.69125 2.86984375 -8.5625 2.8671875 C-10.84698944 2.99166289 -12.80991574 3.36122543 -15 4 C-15 3.34 -15 2.68 -15 2 C-10.21582839 -0.8188429 -5.40325395 -0.52466379 0 0 Z " fill="#C9E7EA" transform="translate(299,359)"/>
<path d="M0 0 C0.99 0.33 1.98 0.66 3 1 C2.21625 1.5775 1.4325 2.155 0.625 2.75 C-2.52388691 5.44904592 -3.83781841 7.28472355 -4.23046875 11.4375 C-4.21628906 12.283125 -4.20210938 13.12875 -4.1875 14 C-4.18105469 14.845625 -4.17460937 15.69125 -4.16796875 16.5625 C-4.01154076 18.83252477 -3.63089814 20.81961604 -3 23 C-3.99 22.67 -4.98 22.34 -6 22 C-7.84615153 18.30769694 -7.34792551 14.03842104 -7 10 C-5.42000846 5.73402284 -3.37391208 3.0248867 0 0 Z " fill="#CEEAEC" transform="translate(281,363)"/>
<path d="M0 0 C1.8125 1.375 1.8125 1.375 3 3 C3 3.66 3 4.32 3 5 C-0.63 5 -4.26 5 -8 5 C-7.67 3.68 -7.34 2.36 -7 1 C-4.45132831 -0.27433584 -2.82594567 -0.27570202 0 0 Z " fill="#D4EDEF" transform="translate(178,374)"/>
<path d="M0 0 C2 2 2 2 2.125 5.125 C2.08375 6.07375 2.0425 7.0225 2 8 C1.01 8 0.02 8 -1 8 C-0.79375 7.38125 -0.5875 6.7625 -0.375 6.125 C-0.25125 5.42375 -0.1275 4.7225 0 4 C-0.66 3.34 -1.32 2.68 -2 2 C-4.60280568 2.32041397 -4.60280568 2.32041397 -7 3 C-7 4.65 -7 6.3 -7 8 C-5.35 8.33 -3.7 8.66 -2 9 C-2 9.33 -2 9.66 -2 10 C-4.875 10.125 -4.875 10.125 -8 10 C-10 8 -10 8 -10.3125 5.5625 C-10 3 -10 3 -8.9375 1.1875 C-5.94449731 -0.646921 -3.42183337 -0.31107576 0 0 Z " fill="#C6E6E9" transform="translate(233,356)"/>
<path d="M0 0 C0.33 0 0.66 0 1 0 C1 6.27 1 12.54 1 19 C0.67 19 0.34 19 0 19 C-0.33 15.04 -0.66 11.08 -1 7 C-2.32 8.65 -3.64 10.3 -5 12 C-5.66 11.67 -6.32 11.34 -7 11 C-5.85845641 9.16399255 -4.71165684 7.33125195 -3.5625 5.5 C-2.92441406 4.4790625 -2.28632813 3.458125 -1.62890625 2.40625 C-0.82259766 1.21515625 -0.82259766 1.21515625 0 0 Z " fill="#9FCBD8" transform="translate(149,375)"/>
<path d="M0 0 C2.125 0.375 2.125 0.375 4 1 C4.38218767 2.65614657 4.71395102 4.32457024 5 6 C4 7 4 7 1.4375 7.0625 C0.2309375 7.0315625 0.2309375 7.0315625 -1 7 C-1.625 4.625 -1.625 4.625 -2 2 C-1.34 1.34 -0.68 0.68 0 0 Z " fill="#6CA2C1" transform="translate(240,408)"/>
<path d="M0 0 C1.67542976 0.28604898 3.34385343 0.61781233 5 1 C5 2.65 5 4.3 5 6 C2.625 6.625 2.625 6.625 0 7 C-0.66 6.34 -1.32 5.68 -2 5 C-1.46428571 1.46428571 -1.46428571 1.46428571 0 0 Z " fill="#72A5C3" transform="translate(290,408)"/>
<path d="M0 0 C2.125 0.375 2.125 0.375 4 1 C4.38218767 2.65614657 4.71395102 4.32457024 5 6 C4 7 4 7 1.4375 7.0625 C0.2309375 7.0315625 0.2309375 7.0315625 -1 7 C-1.625 4.625 -1.625 4.625 -2 2 C-1.34 1.34 -0.68 0.68 0 0 Z " fill="#6DA2C1" transform="translate(131,408)"/>
<path d="M0 0 C0.66 0 1.32 0 2 0 C2.33 1.32 2.66 2.64 3 4 C3.66 4 4.32 4 5 4 C5.33 2.68 5.66 1.36 6 0 C6.66 0 7.32 0 8 0 C8 2.31 8 4.62 8 7 C7.236875 6.814375 6.47375 6.62875 5.6875 6.4375 C2.91032625 5.77180827 2.91032625 5.77180827 0 7 C0 4.69 0 2.38 0 0 Z " fill="#4287AF" transform="translate(342,408)"/>
<path d="M0 0 C0.66 0 1.32 0 2 0 C2.33 1.32 2.66 2.64 3 4 C3.66 4 4.32 4 5 4 C5.33 2.68 5.66 1.36 6 0 C6.66 0 7.32 0 8 0 C8 2.31 8 4.62 8 7 C7.236875 6.814375 6.47375 6.62875 5.6875 6.4375 C2.91032625 5.77180827 2.91032625 5.77180827 0 7 C0 4.69 0 2.38 0 0 Z " fill="#4287AF" transform="translate(313,408)"/>
<path d="M0 0 C3.63 0 7.26 0 11 0 C10.67 1.32 10.34 2.64 10 4 C7.36 4 4.72 4 2 4 C1.34 2.68 0.68 1.36 0 0 Z " fill="#DAF1F1" transform="translate(170,384)"/>
<path d="M0 0 C6.01726797 4.47437874 10.3791571 10.13666379 15 16 C14.01 16.33 13.02 16.66 12 17 C11.30132812 16.07316406 10.60265625 15.14632813 9.8828125 14.19140625 C8.96374645 12.98161523 8.0444644 11.77198829 7.125 10.5625 C6.43470703 9.64500977 6.43470703 9.64500977 5.73046875 8.70898438 C3.30765076 5.35742987 3.30765076 5.35742987 0 3 C0 2.01 0 1.02 0 0 Z " fill="#C7E7EA" transform="translate(248,376)"/>
<path d="M0 0 C0.33 0 0.66 0 1 0 C1.09796875 0.66386719 1.1959375 1.32773437 1.296875 2.01171875 C2.20654349 7.383468 3.02187393 11.02187393 7 15 C7.66 15.66 8.32 16.32 9 17 C6.66471585 16.82701599 5.30822418 16.29774631 3.62109375 14.66796875 C0 10.42788462 0 10.42788462 0 8 C-0.66 8 -1.32 8 -2 8 C-1.125 1.125 -1.125 1.125 0 0 Z " fill="#D0ECED" transform="translate(190,377)"/>
<path d="M0 0 C1.65 0 3.3 0 5 0 C5.68707555 2.49064888 6 4.37886292 6 7 C4 7 2 7 0 7 C0 4.69 0 2.38 0 0 Z " fill="#5593B7" transform="translate(152,408)"/>
<path d="M0 0 C0.66 0 1.32 0 2 0 C2.66 0.99 3.32 1.98 4 3 C5.32 2.34 6.64 1.68 8 1 C8 2.98 8 4.96 8 7 C7.236875 6.814375 6.47375 6.62875 5.6875 6.4375 C2.91032625 5.77180827 2.91032625 5.77180827 0 7 C0 4.69 0 2.38 0 0 Z " fill="#4287AF" transform="translate(300,408)"/>
<path d="M0 0 C0.66 1.32 1.32 2.64 2 4 C4.64 4 7.28 4 10 4 C10.33 3.01 10.66 2.02 11 1 C11.66 1.33 12.32 1.66 13 2 C12.34 3.32 11.68 4.64 11 6 C9.35425434 6.02688151 7.70838587 6.04634123 6.0625 6.0625 C5.14597656 6.07410156 4.22945313 6.08570313 3.28515625 6.09765625 C1 6 1 6 0 5 C-0.04063832 3.33382885 -0.042721 1.66611905 0 0 Z " fill="#D1ECED" transform="translate(325,390)"/>
<path d="M0 0 C0.66 0 1.32 0 2 0 C2 0.99 2 1.98 2 3 C2.99 3 3.98 3 5 3 C5 2.01 5 1.02 5 0 C5.66 0 6.32 0 7 0 C7 2.31 7 4.62 7 7 C6.34 7 5.68 7 5 7 C5 6.01 5 5.02 5 4 C4.01 4 3.02 4 2 4 C2 4.99 2 5.98 2 7 C1.34 7 0.68 7 0 7 C0 4.69 0 2.38 0 0 Z " fill="#488AB1" transform="translate(220,408)"/>
<path d="M0 0 C0.53367187 0.42152344 1.06734375 0.84304688 1.6171875 1.27734375 C7.38786198 5.52048675 11.85051779 6.9701483 19 7 C19 7.33 19 7.66 19 8 C7.35721576 8.86030425 7.35721576 8.86030425 2.75 5.6875 C1.8425 4.800625 0.935 3.91375 0 3 C0 2.01 0 1.02 0 0 Z " fill="#B3D9E1" transform="translate(278,387)"/>
<path d="M0 0 C0.66 0 1.32 0 2 0 C2 2.31 2 4.62 2 7 C1.34 7 0.68 7 0 7 C-0.33 6.34 -0.66 5.68 -1 5 C-1.33 5.66 -1.66 6.32 -2 7 C-2.66 7 -3.32 7 -4 7 C-4 5.02 -4 3.04 -4 1 C-3.01 1.33 -2.02 1.66 -1 2 C-0.67 1.34 -0.34 0.68 0 0 Z " fill="#337DA9" transform="translate(369,408)"/>
<path d="M0 0 C0.33 0.66 0.66 1.32 1 2 C6.445 1.505 6.445 1.505 12 1 C11.67 1.99 11.34 2.98 11 4 C7.04 4 3.08 4 -1 4 C-0.67 2.68 -0.34 1.36 0 0 Z " fill="#DBF3F2" transform="translate(346,392)"/>
<path d="M0 0 C3.63 0 7.26 0 11 0 C10.67 1.65 10.34 3.3 10 5 C9.67 4.01 9.34 3.02 9 2 C5.7 2.33 2.4 2.66 -1 3 C-0.67 2.01 -0.34 1.02 0 0 Z " fill="#DDF3F3" transform="translate(340,359)"/>
<path d="M0 0 C1.65 0 3.3 0 5 0 C5 1.32 5 2.64 5 4 C4.01 4 3.02 4 2 4 C2 4.66 2 5.32 2 6 C2.99 6.33 3.98 6.66 5 7 C3.35 7 1.7 7 0 7 C0 4.69 0 2.38 0 0 Z " fill="#3880AB" transform="translate(355,408)"/>
<path d="M0 0 C0.99 0 1.98 0 3 0 C3.66 1.98 4.32 3.96 5 6 C2.69 6 0.38 6 -2 6 C-1.34 4.02 -0.68 2.04 0 0 Z " fill="#4488B0" transform="translate(192,409)"/>
<path d="M0 0 C2.125 0.375 2.125 0.375 4 1 C2.68 1.33 1.36 1.66 0 2 C0 2.99 0 3.98 0 5 C1.32 5 2.64 5 4 5 C4 5.66 4 6.32 4 7 C2.35 7 0.7 7 -1 7 C-1.625 4.625 -1.625 4.625 -2 2 C-1.34 1.34 -0.68 0.68 0 0 Z " fill="#4A8CB2" transform="translate(280,408)"/>
<path d="M0 0 C0.66 0 1.32 0 2 0 C2 0.99 2 1.98 2 3 C2.66 3 3.32 3 4 3 C3.67 2.01 3.34 1.02 3 0 C3.99 0.33 4.98 0.66 6 1 C6 2.65 6 4.3 6 6 C4 6 2 6 0 6 C0 4.02 0 2.04 0 0 Z " fill="#2E7AA7" transform="translate(261,409)"/>
<path d="M0 0 C1.5625 1.0625 1.5625 1.0625 3 3 C2.875 6.5625 2.875 6.5625 2 10 C1.01 10.66 0.02 11.32 -1 12 C-1 9 -1 9 0 8 C0.07148199 6.64756083 0.08399454 5.29165633 0.0625 3.9375 C0.041875 2.638125 0.02125 1.33875 0 0 Z " fill="#BBDEE4" transform="translate(209,376)"/>
<path d="M0 0 C0.66 0 1.32 0 2 0 C2 0.99 2 1.98 2 3 C2.99 3 3.98 3 5 3 C5.33 2.34 5.66 1.68 6 1 C6 2.98 6 4.96 6 7 C5.67 6.01 5.34 5.02 5 4 C4.01 4 3.02 4 2 4 C2 4.99 2 5.98 2 7 C1.34 7 0.68 7 0 7 C0 4.69 0 2.38 0 0 Z " fill="#2E7AA6" transform="translate(169,408)"/>
<path d="M0 0 C1.98 0 3.96 0 6 0 C6 0.66 6 1.32 6 2 C5.34 2 4.68 2 4 2 C4 3.65 4 5.3 4 7 C3.34 7 2.68 7 2 7 C2 5.35 2 3.7 2 2 C1.34 2 0.68 2 0 2 C0 1.34 0 0.68 0 0 Z " fill="#5090B5" transform="translate(332,408)"/>
<path d="M0 0 C1.98 0 3.96 0 6 0 C6 0.66 6 1.32 6 2 C5.34 2 4.68 2 4 2 C4 3.65 4 5.3 4 7 C3.34 7 2.68 7 2 7 C2 5.35 2 3.7 2 2 C1.34 2 0.68 2 0 2 C0 1.34 0 0.68 0 0 Z " fill="#5090B5" transform="translate(210,408)"/>
<path d="M0 0 C1.65 0 3.3 0 5 0 C5 0.66 5 1.32 5 2 C4.34 2 3.68 2 3 2 C3 3.65 3 5.3 3 7 C2.34 7 1.68 7 1 7 C0.67 4.69 0.34 2.38 0 0 Z " fill="#5493B7" transform="translate(376,408)"/>
<path d="M0 0 C4 2 4 2 5.3125 3.9375 C6 6 6 6 5 9 C3.35 6.03 1.7 3.06 0 0 Z " fill="#C6E5E9" transform="translate(126,361)"/>
<path d="M0 0 C0.66 0 1.32 0 2 0 C2 2.31 2 4.62 2 7 C1.34 7 0.68 7 0 7 C-1.125 2.25 -1.125 2.25 0 0 Z " fill="#4D8EB4" transform="translate(348,408)"/>
<path d="M0 0 C0.66 0 1.32 0 2 0 C2 2.31 2 4.62 2 7 C1.34 7 0.68 7 0 7 C-1.125 2.25 -1.125 2.25 0 0 Z " fill="#4D8EB4" transform="translate(319,408)"/>
</svg>
